<svg width="30" height="30" viewBox="0 0 30 30" fill="none" xmlns="http://www.w3.org/2000/svg">
<path fill-rule="evenodd" clip-rule="evenodd" d="M24.6886 4.07866C24.9233 4.07046 25.1517 4.15585 25.3234 4.31603C25.4952 4.47621 25.5963 4.69807 25.6045 4.9328L25.9754 15.5533C25.9836 15.788 25.8982 16.0164 25.738 16.1882C25.5778 16.36 25.356 16.4611 25.1213 16.4693C24.8865 16.4775 24.6582 16.3921 24.4864 16.2319C24.3146 16.0717 24.2135 15.8499 24.2053 15.6151L23.909 7.1311L6.57695 25.7193C6.49754 25.8045 6.40213 25.8732 6.29617 25.9215C6.19021 25.9698 6.07578 25.9967 5.9594 26.0008C5.84303 26.0048 5.727 25.9859 5.61793 25.9451C5.50886 25.9044 5.40889 25.8425 5.32373 25.7631C5.23857 25.6837 5.16988 25.5883 5.12159 25.4823C5.07331 25.3764 5.04636 25.2619 5.0423 25.1455C5.03823 25.0292 5.05713 24.9131 5.09791 24.8041C5.13869 24.695 5.20055 24.595 5.27997 24.5099L22.6139 5.92335L14.1299 6.21962C13.8951 6.22782 13.6668 6.14244 13.495 5.98225C13.3232 5.82207 13.2221 5.60021 13.2139 5.36549C13.2057 5.13076 13.2911 4.90239 13.4513 4.73061C13.6115 4.55884 13.8333 4.45773 14.068 4.44954L24.6886 4.07866Z" fill="white"/>
</svg>
