<svg width="50" height="50" viewBox="0 0 50 50" fill="none" xmlns="http://www.w3.org/2000/svg">
<path opacity="0.2" d="M37.0346 28.0778C37.3575 27.6098 37.5188 27.3757 37.4983 27.1493C37.4777 26.9229 37.2905 26.7357 36.9161 26.3612L23.64 13.0839C23.2656 12.7096 23.0786 12.5224 22.852 12.5018C22.6256 12.4811 22.3915 12.6425 21.9234 12.9652C20.0851 14.2325 18.2945 14.7379 16.4121 14.922L16.332 14.9299C14.8895 15.0709 13.6936 15.1879 12.7601 15.3711C11.8104 15.5575 10.8802 15.8543 10.1454 16.5278C9.44263 17.1719 9.06784 17.9732 8.80682 18.8304C8.56132 19.6367 8.3732 20.65 8.15388 21.8313L5.2147 37.6599C4.9547 39.0595 4.72803 40.2797 4.69253 41.2542C4.65478 42.291 4.81406 43.4174 5.69828 44.3016C6.58251 45.186 7.70899 45.3453 8.74571 45.3074C9.72015 45.272 10.9402 45.0452 12.3397 44.7854L28.1676 41.846C29.349 41.6267 30.3621 41.4384 31.1684 41.193C32.0253 40.9321 32.8268 40.5572 33.4707 39.8546C34.1442 39.12 34.4412 38.1898 34.6276 37.2401C34.811 36.3065 34.9281 35.1105 35.0694 33.6676L35.0772 33.5876C35.2615 31.7056 35.7672 29.9159 37.0346 28.0778Z" fill="white"/>
<path d="M39.5934 9.87148C37.9904 8.26834 36.6638 6.94181 35.4783 6.06374C34.2294 5.13888 32.9068 4.53446 31.3365 4.72146C29.2606 4.96868 27.6893 6.34677 26.555 7.67197C26.1462 8.1497 25.758 8.6662 25.3977 9.1775C25.1209 9.57014 24.9825 9.76648 25.0018 9.99286C25.0213 10.2193 25.1955 10.3933 25.5434 10.7414L39.2575 24.4566C39.6056 24.8047 39.7798 24.9787 40.0061 24.9982C40.2326 25.0177 40.429 24.8792 40.8215 24.6025C41.3333 24.2419 41.85 23.8535 42.3278 23.4446C43.6531 22.3103 45.0313 20.7391 45.2786 18.6631C45.4654 17.093 44.8611 15.7704 43.9363 14.5216C43.0582 13.3359 41.7316 12.0095 40.1284 10.4065L39.5934 9.87148Z" fill="white"/>
<path d="M32.8125 23.4375L23.4375 14.0625C23.4478 14.0734 23.4583 14.0842 23.469 14.0948L32.8125 23.4375Z" fill="white"/>
<path d="M7.63949 45.3125L20.0451 32.9082C20.8371 33.3409 21.6945 33.6241 22.5762 33.7674C23.715 33.9523 24.7878 33.1791 24.9727 32.0404C25.1575 30.9019 24.3845 29.829 23.2457 29.6441C22.4667 29.5178 21.8113 29.1915 21.3098 28.6899C20.8081 28.1884 20.4818 27.533 20.3554 26.7541C20.1705 25.6157 19.0976 24.8425 17.9589 25.0273C16.8201 25.2121 16.0469 26.2851 16.2318 27.4235C16.3749 28.3053 16.6582 29.1625 17.091 29.9545L4.6875 42.3567C4.78751 43.0652 5.05382 43.7649 5.64491 44.3559C6.23472 44.9455 6.9326 45.212 7.63949 45.3125Z" fill="white"/>
</svg>
