<svg width="50" height="50" viewBox="0 0 50 50" fill="none" xmlns="http://www.w3.org/2000/svg">
<path fill-rule="evenodd" clip-rule="evenodd" d="M16.5471 4.6875H13.1405C12.0698 4.68746 11.1459 4.68744 10.3851 4.75199C9.58206 4.82012 8.78333 4.97056 8.01475 5.37723C6.86815 5.98392 5.93591 6.95202 5.35168 8.14272C4.96008 8.94087 4.81521 9.77031 4.7496 10.6043C4.68744 11.3943 4.68746 12.3535 4.6875 13.4654V38.0968C4.68746 39.2089 4.68744 40.1682 4.7496 40.9582C4.81521 41.7922 4.96008 42.6217 5.35168 43.4198C5.93591 44.6106 6.86815 45.5786 8.01475 46.1852C8.78333 46.5919 9.58206 46.7423 10.3851 46.8105C11.1459 46.875 12.0697 46.875 13.1404 46.875H16.5471C17.6178 46.875 18.5416 46.875 19.3024 46.8105C20.1055 46.7423 20.9042 46.5919 21.6728 46.1852C22.8195 45.5786 23.7516 44.6106 24.3358 43.4198C24.7274 42.6217 24.8722 41.7922 24.9378 40.9582C25 40.1682 25 39.2089 25 38.097V13.4656C25 12.3537 25 11.3944 24.9378 10.6043C24.8722 9.77031 24.7274 8.94087 24.3358 8.14272C23.7516 6.95202 22.8195 5.98392 21.6728 5.37723C20.9042 4.97056 20.1055 4.82012 19.3024 4.75199C18.5416 4.68744 17.6177 4.68746 16.5471 4.6875ZM14.8438 38.4375C15.9656 38.4375 16.875 37.4931 16.875 36.3281C16.875 35.1631 15.9656 34.2187 14.8438 34.2187C13.7219 34.2187 12.8125 35.1631 12.8125 36.3281C12.8125 37.4931 13.7219 38.4375 14.8438 38.4375Z" fill="white"/>
<path opacity="0.2" d="M26.5625 39.0625L40.2655 25.5463C41.0296 24.7925 41.6888 24.1425 42.1874 23.5632C42.7135 22.9518 43.1801 22.2876 43.449 21.471C43.8503 20.2528 43.8503 18.9406 43.449 17.7223C43.1801 16.9058 42.7135 16.2416 42.1874 15.6302C41.6888 15.051 41.0296 14.4008 40.2655 13.6472L37.8346 11.2496C37.0707 10.4959 36.4115 9.84568 35.8242 9.35393C35.2046 8.8349 34.5312 8.37469 33.7033 8.10936C32.4683 7.71355 31.1378 7.71355 29.9028 8.10936C29.0749 8.37469 28.4016 8.8349 27.7817 9.35393C27.4086 9.66633 27.0067 10.0426 26.5672 10.4688C26.606 11.2009 26.606 12.0192 26.606 12.8556V36.59C26.606 37.4592 26.606 38.309 26.5625 39.0625Z" fill="white"/>
<path opacity="0.2" d="M23.4343 44.7012L21.875 45.3125H36.5814C37.6873 45.3127 38.6415 45.3127 39.4274 45.2514C40.2568 45.1867 41.082 45.0438 41.8757 44.658C43.06 44.0819 44.023 43.1631 44.6264 42.0328C45.0309 41.2752 45.1805 40.4879 45.2483 39.6965C45.3125 38.9464 45.3125 38.0358 45.3125 36.9804V33.6225C45.3125 32.567 45.3125 31.6565 45.2483 30.9065C45.1805 30.115 45.0309 29.3276 44.6264 28.5701C44.2066 27.7839 43.6129 27.0997 42.8915 26.5625C42.5861 26.862 42.2651 27.1682 41.9405 27.4779L24.8068 43.8288C24.4143 44.2034 23.9477 44.5 23.4343 44.7012Z" fill="white"/>
</svg>
