<svg width="50" height="50" viewBox="0 0 50 50" fill="none" xmlns="http://www.w3.org/2000/svg">
<path opacity="0.2" fill-rule="evenodd" clip-rule="evenodd" d="M2.66049 41.3505C2.50527 41.7447 2.35878 42.1165 2.23349 42.457C1.81933 43.5819 1.18249 44.7231 1.94476 45.8663C2.36496 46.4964 3.07249 46.875 3.82994 46.875H24.2187C36.7313 46.875 46.875 36.7313 46.875 24.2188C46.875 11.706 36.7313 1.5625 24.2187 1.5625C11.706 1.5625 1.5625 11.706 1.5625 24.2188C1.5625 27.8324 2.41 31.2542 3.91952 34.291C4.66437 36.263 3.52628 39.1524 2.66049 41.3505Z" fill="white"/>
<path fill-rule="evenodd" clip-rule="evenodd" d="M15.625 19.5312C15.625 20.8257 14.5757 21.875 13.2812 21.875C11.9868 21.875 10.9375 20.8257 10.9375 19.5312C10.9375 18.2368 11.9868 17.1875 13.2812 17.1875C14.5757 17.1875 15.625 18.2368 15.625 19.5312ZM15.625 28.9062C15.625 30.2007 14.5757 31.25 13.2812 31.25C11.9868 31.25 10.9375 30.2007 10.9375 28.9062C10.9375 27.6118 11.9868 26.5625 13.2812 26.5625C14.5757 26.5625 15.625 27.6118 15.625 28.9062ZM17.9688 19.5312C17.9688 18.2368 19.0181 17.1875 20.3125 17.1875H36.7188C38.0132 17.1875 39.0625 18.2368 39.0625 19.5312C39.0625 20.8257 38.0132 21.875 36.7188 21.875H20.3125C19.0181 21.875 17.9688 20.8257 17.9688 19.5312ZM17.9688 28.9062C17.9688 27.6118 19.0181 26.5625 20.3125 26.5625H36.7188C38.0132 26.5625 39.0625 27.6118 39.0625 28.9062C39.0625 30.2007 38.0132 31.25 36.7188 31.25H20.3125C19.0181 31.25 17.9688 30.2007 17.9688 28.9062Z" fill="white"/>
</svg>
