<svg width="50" height="50" viewBox="0 0 50 50" fill="none" xmlns="http://www.w3.org/2000/svg">
<path opacity="0.2" d="M48.403 18.5323C48.3911 17.9007 48.3851 17.5849 48.1851 17.3862C47.9848 17.1875 47.6701 17.1875 47.0406 17.1875H2.95938C2.32988 17.1875 2.01513 17.1875 1.81505 17.3862C1.61496 17.5849 1.60896 17.9007 1.59698 18.5323C1.56248 20.3514 1.56248 22.3607 1.5625 24.5781V24.8429C1.56248 29.914 1.56246 33.8969 1.97544 37.0069C2.39866 40.1935 3.28366 42.7219 5.24598 44.7085C7.20833 46.6951 9.70588 47.591 12.8537 48.0194C15.9256 48.4375 19.86 48.4375 24.8692 48.4375H25.1308C30.14 48.4375 34.0745 48.4375 37.1463 48.0194C40.2941 47.591 42.7917 46.6951 44.754 44.7085C46.7164 42.7219 47.6013 40.1935 48.0245 37.0069C48.4375 33.8969 48.4375 29.914 48.4375 24.8429V24.5781C48.4375 22.3609 48.4375 20.3514 48.403 18.5323Z" fill="white"/>
<path d="M24.347 1.5625H24.0905C19.1744 1.56248 15.313 1.56245 12.2983 1.97292C9.20899 2.39357 6.75788 3.27319 4.83202 5.22358C2.90618 7.17399 2.03763 9.65635 1.62228 12.785C1.55872 13.2638 1.52695 13.5031 1.62466 13.6942C1.6734 13.7895 1.74922 13.8773 1.83602 13.939C2.01001 14.0625 2.25647 14.0625 2.74938 14.0625H45.6881C46.1809 14.0625 46.4276 14.0625 46.6015 13.939C46.6883 13.8773 46.7642 13.7895 46.8129 13.6942C46.9105 13.5031 46.8789 13.2638 46.8151 12.785C46.4 9.65635 45.5313 7.17399 43.6054 5.22358C41.6796 3.27319 39.2286 2.39357 36.1392 1.97292C33.1245 1.56245 29.2631 1.56248 24.347 1.5625Z" fill="white"/>
<path fill-rule="evenodd" clip-rule="evenodd" d="M12.5 26.4915C12.5 25.6678 13.1844 25 14.0285 25H16.0666C16.9108 25 17.5951 25.6678 17.5951 26.4915C17.5951 27.3152 16.9108 27.983 16.0666 27.983H14.0285C13.1844 27.983 12.5 27.3152 12.5 26.4915ZM20.6522 26.4915C20.6522 25.6678 21.3365 25 22.1807 25H34.409C35.2531 25 35.9375 25.6678 35.9375 26.4915C35.9375 27.3152 35.2531 27.983 34.409 27.983H22.1807C21.3365 27.983 20.6522 27.3152 20.6522 26.4915ZM12.5 34.446C12.5 33.6223 13.1844 32.9545 14.0285 32.9545H16.0666C16.9108 32.9545 17.5951 33.6223 17.5951 34.446C17.5951 35.2697 16.9108 35.9375 16.0666 35.9375H14.0285C13.1844 35.9375 12.5 35.2697 12.5 34.446ZM20.6522 34.446C20.6522 33.6223 21.3365 32.9545 22.1807 32.9545H34.409C35.2531 32.9545 35.9375 33.6223 35.9375 34.446C35.9375 35.2697 35.2531 35.9375 34.409 35.9375H22.1807C21.3365 35.9375 20.6522 35.2697 20.6522 34.446Z" fill="white"/>
</svg>
