<svg xmlns="http://www.w3.org/2000/svg" xmlns:xlink="http://www.w3.org/1999/xlink" width="400" zoomAndPan="magnify" viewBox="0 0 300 299.999988" height="400" preserveAspectRatio="xMidYMid meet" version="1.0"><defs><clipPath id="51488a5dad"><path d="M 54.105469 54.105469 L 246 54.105469 L 246 246 L 54.105469 246 Z M 54.105469 54.105469 " clip-rule="nonzero"/></clipPath></defs><g clip-path="url(#51488a5dad)"><path fill="#a6a6a6" d="M 150.003906 54.097656 C 202.761719 54.097656 245.902344 97.234375 245.902344 149.996094 C 245.902344 202.753906 202.761719 245.894531 150.003906 245.894531 C 97.242188 245.894531 54.105469 202.753906 54.105469 149.996094 C 54.105469 97.234375 97.242188 54.097656 150.003906 54.097656 Z M 150.003906 54.097656 " fill-opacity="1" fill-rule="evenodd"/></g><path fill="#fffffe" d="M 112.871094 150.53125 C 114.796875 150.53125 116.363281 148.964844 116.363281 147.039062 C 116.363281 146.507812 116.246094 146 116.03125 145.546875 L 136.128906 125.441406 C 136.585938 125.65625 137.089844 125.777344 137.625 125.777344 C 138.558594 125.777344 139.40625 125.410156 140.035156 124.8125 L 158.886719 134.179688 C 158.863281 134.339844 158.851562 134.5 158.851562 134.664062 C 158.851562 136.609375 160.433594 138.191406 162.378906 138.191406 C 164.324219 138.191406 165.90625 136.609375 165.90625 134.664062 C 165.90625 133.921875 165.679688 133.238281 165.289062 132.667969 L 186.09375 104.429688 C 186.421875 104.53125 186.769531 104.585938 187.132812 104.585938 C 189.074219 104.585938 190.652344 103.007812 190.652344 101.070312 C 190.652344 99.128906 189.074219 97.550781 187.132812 97.550781 C 185.195312 97.550781 183.613281 99.128906 183.613281 101.070312 C 183.613281 101.789062 183.832031 102.457031 184.207031 103.015625 L 163.382812 131.28125 C 163.066406 131.1875 162.730469 131.136719 162.378906 131.136719 C 161.449219 131.136719 160.605469 131.496094 159.972656 132.089844 L 141.09375 122.703125 C 141.109375 122.566406 141.117188 122.425781 141.117188 122.285156 C 141.117188 120.359375 139.550781 118.792969 137.625 118.792969 C 135.699219 118.792969 134.132812 120.359375 134.132812 122.285156 C 134.132812 122.816406 134.253906 123.320312 134.464844 123.769531 L 114.363281 143.882812 C 113.910156 143.667969 113.40625 143.546875 112.871094 143.546875 C 110.949219 143.546875 109.378906 145.113281 109.378906 147.039062 C 109.378906 148.964844 110.949219 150.53125 112.871094 150.53125 Z M 112.871094 150.53125 " fill-opacity="1" fill-rule="evenodd"/><path fill="#fffffe" d="M 108.746094 167.667969 L 117 167.667969 L 117 202.4375 L 108.746094 202.4375 Z M 108.746094 167.667969 " fill-opacity="1" fill-rule="evenodd"/><path fill="#fffffe" d="M 133.5 142.914062 L 141.75 142.914062 L 141.75 202.4375 L 133.5 202.4375 Z M 133.5 142.914062 " fill-opacity="1" fill-rule="evenodd"/><path fill="#fffffe" d="M 183.007812 121.695312 L 191.257812 121.695312 L 191.257812 202.4375 L 183.007812 202.4375 Z M 183.007812 121.695312 " fill-opacity="1" fill-rule="evenodd"/><path fill="#fffffe" d="M 158.253906 155.289062 L 166.503906 155.289062 L 166.503906 202.4375 L 158.253906 202.4375 Z M 158.253906 155.289062 " fill-opacity="1" fill-rule="evenodd"/></svg>