<svg width="50" height="50" viewBox="0 0 50 50" fill="none" xmlns="http://www.w3.org/2000/svg">
<path opacity="0.2" fill-rule="evenodd" clip-rule="evenodd" d="M2.32886 6.96413C1.5625 8.46819 1.5625 10.4371 1.5625 14.375V34.0625C1.5625 38.0005 1.5625 39.9692 2.32886 41.4734C3.00297 42.7965 4.07861 43.872 5.40163 44.5461C6.90569 45.3125 8.87463 45.3125 12.8125 45.3125H37.1875C41.1255 45.3125 43.0942 45.3125 44.5984 44.5461C45.9215 43.872 46.997 42.7965 47.6711 41.4734C48.4375 39.9692 48.4375 38.0005 48.4375 34.0625V14.375C48.4375 10.4371 48.4375 8.46819 47.6711 6.96413C46.997 5.64111 45.9215 4.56547 44.5984 3.89136C43.0942 3.125 41.1255 3.125 37.1875 3.125H12.8125C8.87463 3.125 6.90569 3.125 5.40163 3.89136C4.07861 4.56547 3.00297 5.64111 2.32886 6.96413Z" fill="white"/>
<path d="M14 14V36H36V14H14ZM32.3333 32.3333H17.6667V31.1111H32.3333V32.3333ZM32.3333 29.8889H17.6667V28.6667H32.3333V29.8889ZM32.3333 25H17.6667V17.6667H32.3333V25Z" fill="white"/>
</svg>
