<svg width="50" height="50" viewBox="0 0 50 50" fill="none" xmlns="http://www.w3.org/2000/svg">
<path opacity="0.2" d="M24.2188 3.125C22.065 3.125 20.2133 3.9777 18.2786 5.39605C16.4013 6.77243 14.2866 8.80447 11.6183 11.3684L11.5464 11.4376L6.25 16.3406V27.4217C6.24996 31.2038 6.24994 34.1993 6.56448 36.5437C6.88817 38.9564 7.5702 40.9094 9.10701 42.4495C10.6438 43.9895 12.5926 44.6729 15.0002 44.9974C17.3397 45.3125 20.3289 45.3125 24.1027 45.3125H24.3346C28.1086 45.3125 31.0978 45.3125 33.4372 44.9974C35.8448 44.6729 37.7937 43.9895 39.3306 42.4495C40.8673 40.9094 41.5493 38.9564 41.8731 36.5437C42.1875 34.1993 42.1875 31.2038 42.1875 27.4219V16.3406L36.8911 11.4376L36.8193 11.3685C34.1508 8.80449 32.0363 6.77243 30.1589 5.39607C28.2242 3.9777 26.3725 3.125 24.2188 3.125Z" fill="white"/>
<path fill-rule="evenodd" clip-rule="evenodd" d="M21.875 35.1562C21.875 33.8617 22.9205 32.8125 24.2103 32.8125C25.4894 32.8125 26.5625 33.8657 26.5625 35.1562C26.5625 36.4468 25.4894 37.5 24.2103 37.5C22.9205 37.5 21.875 36.4508 21.875 35.1562Z" fill="white"/>
<path fill-rule="evenodd" clip-rule="evenodd" d="M20.3893 8.74333C18.7263 9.94313 16.7807 11.7772 13.9931 14.4132L5.04767 22.8725C4.22661 23.6488 2.9228 23.6218 2.13552 22.8121C1.34823 22.0025 1.3756 20.7165 2.19665 19.9402L11.2491 11.3797C13.9043 8.86874 16.0462 6.84325 17.957 5.4646C19.9442 4.0308 21.9072 3.125 24.2188 3.125C26.5303 3.125 28.4934 4.0308 30.4806 5.4646C32.3913 6.84327 34.5332 8.86874 37.1885 11.3798L46.2409 19.9402C47.0619 20.7165 47.0893 22.0025 46.3021 22.8121C45.5149 23.6218 44.2109 23.6488 43.3899 22.8725L34.4444 14.4133C31.6568 11.7772 29.7113 9.94315 28.0483 8.74333C26.4362 7.58019 25.3197 7.18751 24.2188 7.18751C23.1179 7.18751 22.0013 7.58019 20.3893 8.74333Z" fill="white"/>
</svg>
