<svg width="50" height="50" viewBox="0 0 50 50" fill="none" xmlns="http://www.w3.org/2000/svg">
<g clip-path="url(#clip0_8679_11836)">
<path opacity="0.2" fill-rule="evenodd" clip-rule="evenodd" d="M2.32886 6.96413C1.5625 8.46819 1.5625 10.4371 1.5625 14.375V34.0625C1.5625 38.0005 1.5625 39.9692 2.32886 41.4734C3.00297 42.7965 4.07861 43.872 5.40163 44.5461C6.90569 45.3125 8.87463 45.3125 12.8125 45.3125H37.1875C41.1255 45.3125 43.0942 45.3125 44.5984 44.5461C45.9215 43.872 46.997 42.7965 47.6711 41.4734C48.4375 39.9692 48.4375 38.0005 48.4375 34.0625V14.375C48.4375 10.4371 48.4375 8.46819 47.6711 6.96413C46.997 5.64111 45.9215 4.56547 44.5984 3.89136C43.0942 3.125 41.1255 3.125 37.1875 3.125H12.8125C8.87463 3.125 6.90569 3.125 5.40163 3.89136C4.07861 4.56547 3.00297 5.64111 2.32886 6.96413Z" fill="white"/>
<path fill-rule="evenodd" clip-rule="evenodd" d="M20.2633 17.1053C20.2633 14.5618 22.3839 12.5 24.9999 12.5C27.6159 12.5 29.7365 14.5618 29.7365 17.1053C29.7365 19.6487 27.6159 21.7105 24.9999 21.7105C22.3839 21.7105 20.2633 19.6487 20.2633 17.1053ZM24.9999 24.0132C20.3038 24.0132 16.4096 27.3336 15.6577 31.6913C15.5424 32.3593 15.7354 33.0427 16.1854 33.5599C16.6354 34.0768 17.2967 34.375 17.9933 34.375H32.0068C32.7033 34.375 33.3645 34.0768 33.8145 33.5599C34.2645 33.0427 34.4575 32.3593 34.3424 31.6913C33.5905 27.3336 29.6963 24.0132 24.9999 24.0132Z" fill="white"/>
</g>
<defs>
<clipPath id="clip0_8679_11836">
<rect width="50" height="50" fill="white"/>
</clipPath>
</defs>
</svg>
