<svg width="24" height="24" viewBox="0 0 24 24" fill="none" xmlns="http://www.w3.org/2000/svg">
<path d="M11.9998 21.8182C17.4223 21.8182 21.818 17.4224 21.818 12C21.818 6.57757 17.4223 2.18182 11.9998 2.18182C6.57739 2.18182 2.18164 6.57757 2.18164 12C2.18164 17.4224 6.57739 21.8182 11.9998 21.8182Z" stroke="white" stroke-width="2"/>
<path opacity="0.4" d="M21.818 13.1244C20.9081 12.9514 19.9722 12.8612 19.0171 12.8612C13.762 12.8612 9.08809 15.5906 6.10891 19.8277M18.8726 4.89952C15.8 8.54939 11.1829 10.8708 6.02018 10.8708C4.69939 10.8708 3.41429 10.7188 2.18164 10.4316M14.57 21.8182C14.8161 20.61 14.9453 19.3587 14.9453 18.0769C14.9453 11.7911 11.8371 6.23953 7.09073 2.90909" stroke="white" stroke-width="2" stroke-linejoin="round"/>
</svg>
