<svg width="24" height="24" viewBox="0 0 24 24" fill="none" xmlns="http://www.w3.org/2000/svg">
<g clip-path="url(#clip0_8679_11877)">
<path d="M4.60588 9.45456H4.12103C3.20679 9.45456 2.74968 9.45456 2.46566 9.74425C2.18164 10.034 2.18164 10.5002 2.18164 11.4327V19.84C2.18164 20.7725 2.18164 21.2388 2.46566 21.5285C2.74968 21.8182 3.20679 21.8182 4.12103 21.8182H4.60588C5.52012 21.8182 5.97724 21.8182 6.26126 21.5285C6.54528 21.2388 6.54528 20.7725 6.54528 19.84V11.4327C6.54528 10.5002 6.54528 10.034 6.26126 9.74425C5.97724 9.45456 5.52012 9.45456 4.60588 9.45456Z" stroke="white" stroke-width="1.5"/>
<path opacity="0.4" d="M6.54528 4.36364C6.54528 5.56863 5.56844 6.54546 4.36346 6.54546C3.15847 6.54546 2.18164 5.56863 2.18164 4.36364C2.18164 3.15866 3.15847 2.18182 4.36346 2.18182C5.56844 2.18182 6.54528 3.15866 6.54528 4.36364Z" stroke="white" stroke-width="2"/>
<path d="M12.2493 9.45456H11.4323C10.4998 9.45456 10.0335 9.45456 9.74379 9.74425C9.4541 10.034 9.4541 10.5002 9.4541 11.4327V19.84C9.4541 20.7725 9.4541 21.2388 9.74379 21.5285C10.0335 21.8182 10.4998 21.8182 11.4323 21.8182H11.9268C12.8593 21.8182 13.3256 21.8182 13.6153 21.5285C13.905 21.2388 13.905 20.7725 13.905 19.84L13.9051 16.3783C13.9051 14.7396 14.4273 13.411 15.9701 13.411C16.7414 13.411 17.3668 14.0753 17.3668 14.8947V19.3456C17.3668 20.2781 17.3668 20.7443 17.6565 21.034C17.9461 21.3237 18.4124 21.3237 19.3449 21.3237H19.8382C20.7705 21.3237 21.2367 21.3237 21.5264 21.0341C21.8161 20.7445 21.8162 20.2784 21.8164 19.3461L21.8177 13.9057C21.8177 11.4476 19.4798 9.4548 17.1658 9.4548C15.8484 9.4548 14.6732 10.1005 13.9051 11.1103C13.905 10.4871 13.905 10.1755 13.7697 9.94416C13.6839 9.79764 13.5619 9.67565 13.4154 9.58994C13.184 9.45456 12.8725 9.45456 12.2493 9.45456Z" stroke="white" stroke-width="1.5" stroke-linejoin="round"/>
</g>
<defs>
<clipPath id="clip0_8679_11877">
<rect width="24" height="24" fill="white"/>
</clipPath>
</defs>
</svg>
