<svg width="24" height="24" viewBox="0 0 24 24" fill="none" xmlns="http://www.w3.org/2000/svg">
<g clip-path="url(#clip0_8679_11863)">
<path d="M2.18164 11.6364C2.18164 7.17946 2.18164 4.951 3.56622 3.56641C4.95082 2.18182 7.17927 2.18182 11.6362 2.18182C16.0931 2.18182 18.3215 2.18182 19.7062 3.56641C21.0907 4.951 21.0907 7.17946 21.0907 11.6364C21.0907 16.0932 21.0907 18.3217 19.7062 19.7064C18.3215 21.0909 16.0931 21.0909 11.6362 21.0909C7.17927 21.0909 4.95082 21.0909 3.56622 19.7064C2.18164 18.3217 2.18164 16.0932 2.18164 11.6364Z" stroke="white" stroke-width="2" stroke-linejoin="round"/>
<path opacity="0.4" d="M15.9997 11.6364C15.9997 14.0464 14.0461 16 11.6361 16C9.22613 16 7.27246 14.0464 7.27246 11.6364C7.27246 9.2264 9.22613 7.27274 11.6361 7.27274C14.0461 7.27274 15.9997 9.2264 15.9997 11.6364Z" stroke="white" stroke-width="2"/>
<path opacity="0.4" d="M17.4637 6.54544H17.4541" stroke="white" stroke-width="2.14118" stroke-linecap="round" stroke-linejoin="round"/>
</g>
<defs>
<clipPath id="clip0_8679_11863">
<rect width="24" height="24" fill="white"/>
</clipPath>
</defs>
</svg>
