<svg width="68" height="68" viewBox="0 0 68 68" fill="none" xmlns="http://www.w3.org/2000/svg">
<path d="M42.8875 44.2228C47.7967 44.2228 51.7764 40.2431 51.7764 35.3339C51.7764 30.4247 47.7967 26.445 42.8875 26.445C37.9783 26.445 33.9987 30.4247 33.9987 35.3339C33.9987 40.2431 37.9783 44.2228 42.8875 44.2228Z" fill="#19BCFE"/>
<path fill-rule="evenodd" clip-rule="evenodd" d="M25.1103 61.9995C27.4678 61.9995 29.7287 61.063 31.3957 59.396C33.0627 57.729 33.9992 55.4681 33.9992 53.1106V44.2217H25.1103C22.7528 44.2217 20.4919 45.1582 18.8249 46.8252C17.1579 48.4922 16.2214 50.7531 16.2214 53.1106C16.2214 55.4681 17.1579 57.729 18.8249 59.396C20.4919 61.063 22.7528 61.9995 25.1103 61.9995Z" fill="#09CF83"/>
<path fill-rule="evenodd" clip-rule="evenodd" d="M25.1103 44.2228H33.9992V26.445H25.1103C22.7528 26.445 20.4919 27.3815 18.8249 29.0485C17.1579 30.7155 16.2214 32.9764 16.2214 35.3339C16.2214 37.6913 17.1579 39.9523 18.8249 41.6193C20.4919 43.2862 22.7528 44.2228 25.1103 44.2228Z" fill="#A259FF"/>
<path fill-rule="evenodd" clip-rule="evenodd" d="M25.1103 26.4423H33.9992V8.66455H25.1103C22.7528 8.66455 20.4919 9.60106 18.8249 11.268C17.1579 12.935 16.2214 15.196 16.2214 17.5534C16.2214 19.9109 17.1579 22.1718 18.8249 23.8388C20.4919 25.5058 22.7528 26.4423 25.1103 26.4423Z" fill="#F24E1E"/>
<path fill-rule="evenodd" clip-rule="evenodd" d="M42.8875 26.4425H33.9987V8.6647H42.8875C45.245 8.6647 47.5059 9.60121 49.1729 11.2682C50.8399 12.9352 51.7764 15.1961 51.7764 17.5536C51.7764 19.9111 50.8399 22.172 49.1729 23.839C47.5059 25.506 45.245 26.4425 42.8875 26.4425Z" fill="#FF7262"/>
</svg>
