<svg width="68" height="68" viewBox="0 0 68 68" fill="none" xmlns="http://www.w3.org/2000/svg">
<path d="M11.9997 49.6376V15.3376C11.9997 15.1042 12.0997 14.9711 12.3331 14.9711C12.8997 14.9711 13.4331 14.9711 14.1997 14.9376C14.9997 14.9042 15.8331 14.9042 16.7331 14.8711C17.6331 14.8377 18.5997 14.8376 19.6331 14.8042C20.6663 14.7711 21.6663 14.7711 22.6663 14.7711C25.3997 14.7711 27.6663 15.1042 29.5331 15.8042C31.2064 16.3725 32.7322 17.3062 33.9997 18.5376C35.0738 19.6153 35.9037 20.9112 36.4331 22.3377C36.9331 23.7376 37.1997 25.1711 37.1997 26.6711C37.1997 29.5377 36.5331 31.9042 35.1997 33.7711C33.8663 35.6377 31.9997 37.0377 29.8331 37.8377C27.5663 38.6711 25.0663 38.9711 22.3331 38.9711C21.5331 38.9711 20.9997 38.9711 20.6663 38.9377C20.3331 38.9042 19.8663 38.9042 19.2331 38.9042V49.6042C19.2663 49.8377 19.0997 50.0377 18.8663 50.0711H12.3997C12.1331 50.0711 11.9997 49.9376 11.9997 49.6376ZM19.2663 21.4042V32.6042C19.7331 32.6376 20.1663 32.6711 20.5663 32.6711H22.3331C23.6331 32.6711 24.9331 32.4711 26.1663 32.0711C27.2331 31.7711 28.1663 31.1376 28.8997 30.3042C29.5997 29.4711 29.9331 28.3376 29.9331 26.8711C29.9644 25.8294 29.6984 24.8003 29.1663 23.9042C28.5997 23.0377 27.7997 22.3711 26.8331 22.0042C25.5997 21.5042 24.2663 21.3042 22.8997 21.3377C22.0331 21.3377 21.2663 21.3376 20.6331 21.3711C19.9663 21.3376 19.4997 21.3711 19.2663 21.4042ZM57.9997 30.5711C56.9997 30.0377 55.9331 29.6711 54.7997 29.4377C53.5663 29.1711 52.3331 29.0042 51.0663 29.0042C50.3997 28.9711 49.6997 29.0711 49.0663 29.2377C48.6331 29.3377 48.2663 29.5711 48.0331 29.9042C47.8663 30.1711 47.7663 30.5042 47.7663 30.8042C47.7663 31.1042 47.8997 31.4042 48.0997 31.6711C48.3997 32.0376 48.7997 32.3377 49.2331 32.5711C50.0059 32.9713 50.7955 33.3383 51.5997 33.6711C53.3997 34.2711 55.1331 35.1042 56.7331 36.1042C57.8331 36.8042 58.7331 37.7377 59.3663 38.8711C59.8997 39.9377 60.1663 41.1042 60.1331 42.3042C60.1663 43.8711 59.6997 45.4377 58.8331 46.7376C57.9033 48.0683 56.606 49.0991 55.0997 49.7042C53.4663 50.4042 51.4663 50.7711 49.0663 50.7711C47.5331 50.7711 46.0331 50.6377 44.5331 50.3377C43.3575 50.1346 42.2141 49.7759 41.1331 49.2711C40.8997 49.1377 40.7331 48.9042 40.7663 48.6376V42.8377C40.7663 42.7377 40.7997 42.6042 40.8997 42.5377C40.9997 42.4711 41.0997 42.5042 41.1997 42.5711C42.4997 43.3377 43.8663 43.8711 45.3331 44.2042C46.5997 44.5377 47.9331 44.7042 49.2663 44.7042C50.5331 44.7042 51.4331 44.5377 52.0331 44.2376C52.5663 44.0042 52.9331 43.4377 52.9331 42.8377C52.9331 42.3711 52.6663 41.9377 52.1331 41.5042C51.5997 41.0711 50.4997 40.5711 48.8663 39.9377C47.1907 39.3472 45.5996 38.5404 44.1331 37.5377C43.0886 36.7931 42.2232 35.8252 41.5997 34.7042C41.0663 33.6377 40.7997 32.4711 40.8331 31.3042C40.8331 29.8711 41.2331 28.5042 41.9663 27.2711C42.7997 25.9377 44.0331 24.8711 45.4663 24.2042C47.0331 23.4042 48.9997 23.0376 51.3663 23.0376C52.7331 23.0376 54.1331 23.1376 55.4997 23.3376C56.4997 23.4711 57.4663 23.7376 58.3663 24.1042C58.4997 24.1377 58.6331 24.2711 58.6997 24.4042C58.7331 24.5377 58.7663 24.6711 58.7663 24.8042V30.2377C58.7663 30.3711 58.6997 30.5042 58.5997 30.5711C58.2997 30.6377 58.1331 30.6377 57.9997 30.5711Z" fill="#31A8FF"/>
</svg>
