<svg width="68" height="68" viewBox="0 0 68 68" fill="none" xmlns="http://www.w3.org/2000/svg">
<path d="M34.5259 45.2035H21.4211L18.7546 53.4862C18.7183 53.6373 18.6304 53.771 18.5062 53.8642C18.3819 53.9575 18.2289 54.0044 18.0737 53.997H11.4361C11.0579 53.997 10.9254 53.7888 11.0391 53.3726L22.3854 20.6956C22.4987 20.3553 22.6123 19.9678 22.7257 19.5328C22.8743 18.7756 22.9503 18.0066 22.9526 17.2352C22.9449 17.1813 22.9498 17.1262 22.967 17.0745C22.9843 17.0228 23.0133 16.9758 23.0518 16.9373C23.0903 16.8987 23.1373 16.8696 23.189 16.8524C23.2407 16.8351 23.2957 16.8301 23.3497 16.8378H32.3701C32.6343 16.8378 32.7856 16.9326 32.824 17.1219L45.7018 53.4294C45.8154 53.808 45.7018 53.9973 45.3615 53.997H37.9863C37.8596 54.011 37.7322 53.9784 37.6278 53.9054C37.5234 53.8323 37.4492 53.7237 37.419 53.5999L34.5259 45.2035ZM23.4633 38.0555H32.4269L32.299 37.6337L32.0939 36.9657L31.9476 36.4966L31.714 35.758L31.2175 34.203L30.7808 32.8245L29.6467 29.2337C29.3644 28.341 29.0935 27.4448 28.8341 26.5453L28.6266 25.8153L28.3841 24.9521L28.0141 23.6142L27.9448 23.3621H27.8883C27.6044 24.7238 27.2587 26.0719 26.8523 27.4022L26.0106 30.1097L25.5475 31.6055L25.08 33.1198C24.9955 33.3934 24.9115 33.6639 24.8273 33.9312L24.5762 34.7233L24.3265 35.497L24.0781 36.2515L23.831 36.9872C23.7491 37.2293 23.6671 37.4682 23.5855 37.704L23.4633 38.0555ZM53.3598 22.8514C52.7812 22.8746 52.2042 22.7755 51.6666 22.5604C51.1289 22.3454 50.6427 22.0192 50.2397 21.6034C49.8378 21.1694 49.5257 20.6604 49.3212 20.1054C49.1167 19.5505 49.0239 18.9606 49.0482 18.3696C49.0276 17.7846 49.1307 17.2019 49.3506 16.6594C49.5706 16.1169 49.9024 15.6269 50.3246 15.2214C51.1389 14.4397 52.2234 14.0023 53.3522 14.0002L53.4731 14.0015C54.8348 14.0015 55.9035 14.4078 56.6788 15.2211C57.0701 15.6437 57.3742 16.1393 57.5738 16.6796C57.7733 17.2198 57.8643 17.7941 57.8416 18.3696C57.8654 18.9629 57.7697 19.5549 57.5602 20.1105C57.3507 20.6661 57.0316 21.1739 56.622 21.6037C56.2084 22.0113 55.7175 22.3321 55.1781 22.5471C54.6386 22.7621 54.0616 22.8671 53.4811 22.8557L53.3598 22.8514ZM49.4452 53.4294V26.3121C49.4452 25.9718 49.5959 25.8014 49.8991 25.8014H56.8773C57.1796 25.8014 57.3309 25.9715 57.3312 26.3121V53.4294C57.3312 53.808 57.1799 53.9973 56.8773 53.997H49.956C49.6335 53.997 49.4637 53.8272 49.4469 53.4876L49.4452 53.4294Z" fill="#FF9A00"/>
</svg>
