<svg width="68" height="68" viewBox="0 0 68 68" fill="none" xmlns="http://www.w3.org/2000/svg">
<path d="M35.9424 18.3848L26.1131 34.6084L36.6292 51.8357C36.6969 51.9563 36.7156 52.0979 36.6821 52.2321C36.6658 52.2893 36.6307 52.3034 36.5769 52.3056L36.5172 52.3047L36.4445 52.3028C36.4052 52.3028 36.3612 52.3047 36.3122 52.3127H28.7302L28.5812 52.3102C28.1726 52.2994 27.8781 52.241 27.6987 51.9413C26.9972 50.5745 26.2925 49.2094 25.5847 47.8459C24.9516 46.6298 24.3012 45.4227 23.6338 44.225L23.339 43.6976C22.5407 42.2788 21.7568 40.852 20.9875 39.4173H20.9345C20.2241 40.837 19.493 42.2463 18.7415 43.6447C17.9835 45.054 17.2348 46.4544 16.4955 47.8459C15.7556 49.2382 14.9981 50.6211 14.2233 51.9942C14.0987 52.2742 13.8916 52.3327 13.6033 52.3422L13.4833 52.3441H6.24368L6.2123 52.345L6.1089 52.3542C6.05136 52.3576 6.0169 52.3453 6.00582 52.2585C5.98611 52.1297 6.01435 51.9981 6.08521 51.8886L16.2841 35.1367L6.34923 18.3325C6.24378 18.1921 6.22614 18.0777 6.2963 17.9891C6.3353 17.9439 6.38426 17.9085 6.43932 17.8855C6.49439 17.8625 6.55403 17.8527 6.61355 17.8567H14.0645C14.227 17.8479 14.3894 17.875 14.5403 17.9361C14.6664 18.0078 14.775 18.1072 14.8572 18.2269C15.4913 19.6362 16.196 21.0454 16.9712 22.4543C17.7403 23.8541 18.5242 25.2458 19.3227 26.629C20.109 27.9909 20.8406 29.3836 21.5158 30.8038H21.5687C22.2607 29.3839 22.9742 27.9746 23.7089 26.5764C24.4306 25.2024 25.1703 23.8195 25.9281 22.4278C26.6761 21.0542 27.4072 19.6714 28.1212 18.2798C28.1618 18.1494 28.2344 18.0312 28.3326 17.9361C28.4631 17.87 28.6098 17.8425 28.7554 17.8567H35.678C35.7417 17.8409 35.8088 17.8461 35.8692 17.8716C35.9296 17.8972 35.9801 17.9416 36.013 17.9984C36.046 18.0551 36.0597 18.1209 36.052 18.1861C36.0443 18.2512 36.0156 18.3121 35.9704 18.3595L35.9424 18.3848ZM51.4727 52.9943L51.1083 52.9983C48.676 53.0354 46.2659 52.53 44.0534 51.5188C41.9923 50.5648 40.2693 49.0077 39.1124 47.0532C37.9458 45.1157 37.3473 42.7016 37.3169 39.8112L37.3157 39.5758C37.2958 37.1504 37.9157 34.7626 39.1127 32.6532C40.3107 30.5653 42.0572 28.845 44.1629 27.6787L44.3442 27.5802C46.6336 26.3118 49.3991 25.6776 52.6407 25.6776L52.7823 25.6791L52.9442 25.6844L53.1257 25.6924L53.3276 25.7041L53.6667 25.7281L54.0507 25.7588L54.3316 25.7834V15.3729C54.3316 15.1265 54.4373 15.0032 54.6486 15.003H61.3072C61.3503 14.9968 61.3942 15.0008 61.4354 15.0145C61.4767 15.0283 61.5142 15.0514 61.545 15.0822C61.5757 15.1129 61.5989 15.1504 61.6126 15.1917C61.6264 15.233 61.6303 15.2769 61.6241 15.32V46.5513C61.6241 47.0759 61.6444 47.6404 61.6851 48.245L61.7835 49.6159L61.8358 50.4088C61.8424 50.5187 61.8155 50.6279 61.7589 50.7222C61.7023 50.8165 61.6186 50.8916 61.5186 50.9375C59.8008 51.6538 58.0116 52.1851 56.1813 52.5225C54.6275 52.8095 53.0525 52.9673 51.4727 52.9943ZM54.3316 46.4455V32.019C54.0461 31.9416 53.7544 31.8886 53.4599 31.8605C53.0999 31.8241 52.7382 31.8064 52.3764 31.8076C51.0941 31.7946 49.8268 32.0843 48.6774 32.6532C47.558 33.21 46.6021 34.0476 45.903 35.0841C45.2054 36.1045 44.8446 37.4369 44.8208 39.0813L44.8196 39.2588C44.794 40.4107 44.9821 41.5573 45.3744 42.6406C45.6939 43.5136 46.1989 44.307 46.8545 44.966C47.4819 45.5723 48.2416 46.0246 49.0737 46.287C49.9527 46.5715 50.8713 46.7143 51.7951 46.7101C52.2881 46.7101 52.7461 46.6924 53.1691 46.6569C53.5065 46.6315 53.841 46.5759 54.1685 46.4907L54.3316 46.4455Z" fill="#FF61F6"/>
</svg>
