<svg width="68" height="68" viewBox="0 0 68 68" fill="none" xmlns="http://www.w3.org/2000/svg">
<path fill-rule="evenodd" clip-rule="evenodd" d="M33.9997 14.0002C22.9717 14.0002 13.9997 22.9722 13.9997 34.0002C13.9997 45.0282 22.9717 54.0002 33.9997 54.0002C45.0277 54.0002 53.9997 45.0282 53.9997 34.0002C53.9997 22.9722 45.0277 14.0002 33.9997 14.0002ZM33.9997 53.0842C23.4777 53.0842 14.9177 44.5222 14.9177 34.0002C14.9177 23.4782 23.4777 14.9162 33.9997 14.9162C44.5217 14.9162 53.0837 23.4762 53.0837 34.0002C53.0837 44.5202 44.5237 53.0842 33.9997 53.0842ZM16.8437 34.0002C16.8435 37.222 17.7504 40.3789 19.4605 43.1094C21.1706 45.8399 23.6149 48.0339 26.5137 49.4402L18.3277 27.0202C17.3477 29.2166 16.842 31.595 16.8437 34.0002ZM45.5837 33.1362C45.5837 31.0162 44.8197 29.5482 44.1677 28.4042C43.2977 26.9902 42.4817 25.7942 42.4817 24.3802C42.4817 22.8042 43.6777 21.3362 45.3617 21.3362C45.439 21.3375 45.5137 21.3422 45.5857 21.3502C42.4264 18.4464 38.2908 16.8366 33.9997 16.8402C31.1561 16.8389 28.3569 17.5452 25.8542 18.8953C23.3516 20.2454 21.2242 22.197 19.6637 24.5742C20.0677 24.5862 20.4477 24.5942 20.7697 24.5942C22.5637 24.5942 25.3417 24.3762 25.3417 24.3762C26.2657 24.3222 26.3757 25.6802 25.4517 25.7902C25.4517 25.7902 24.5217 25.9002 23.4877 25.9542L29.7357 44.5382L33.4897 33.2782L30.8177 25.9542C29.8937 25.9002 29.0177 25.7902 29.0177 25.7902C28.0937 25.7362 28.2017 24.3222 29.1277 24.3762C29.1277 24.3762 31.9597 24.5962 33.6457 24.5962C35.4397 24.5962 38.2177 24.3762 38.2177 24.3762C39.1437 24.3222 39.2517 25.6802 38.3277 25.7902C38.3277 25.7902 37.3977 25.9002 36.3637 25.9542L42.5637 44.3962L44.2777 38.6782C45.0177 36.3042 45.5817 34.6002 45.5817 33.1322M34.3017 35.4982L29.1537 50.4582C32.6098 51.4774 36.2992 51.3815 39.6977 50.1842C39.6511 50.1077 39.6097 50.0282 39.5737 49.9462L34.3017 35.4982ZM49.0557 25.7662C49.1317 26.3128 49.1704 26.9008 49.1717 27.5302C49.1717 29.2702 48.8457 31.2282 47.8657 33.6762L42.6257 48.8282C45.2216 47.3201 47.3758 45.1567 48.8728 42.5544C50.3698 39.9521 51.157 37.0023 51.1557 34.0002C51.1602 31.1231 50.4379 28.2895 49.0557 25.7662Z" fill="white"/>
</svg>
