<svg width="68" height="68" viewBox="0 0 68 68" fill="none" xmlns="http://www.w3.org/2000/svg">
<g clip-path="url(#clip0_8679_13549)">
<path d="M23.9758 19.9426L36.0001 18.6696L48.0243 19.9426L57.3334 32.4575L36.0001 57.3362L14.6667 32.4575L23.9758 19.9426Z" fill="#FDB300"/>
<path d="M23.3078 32.3366L36.0001 57.3366L14.6667 32.3366H23.3078Z" fill="#EA6C00"/>
<path d="M48.6927 32.3366L36.0004 57.3366L57.3337 32.3366H48.6927Z" fill="#EA6C00"/>
<path d="M23.3337 32.3366H48.6671L36.0004 57.3366L23.3337 32.3366Z" fill="#FDAD00"/>
<path d="M36.0004 18.6703L24.0004 19.9321L23.3337 32.337L36.0004 18.6703Z" fill="#FDD231"/>
<path d="M36.0001 18.6705L48.0002 19.9323L48.6668 32.3371L36.0001 18.6705Z" fill="#FDD231"/>
<path d="M57.3337 32.3366L48.0004 20.0033L48.6702 32.3366H57.3337Z" fill="#FDAD00"/>
<path d="M14.6667 32.3368L24.0001 20.0035L23.3304 32.3368H14.6667Z" fill="#FDAD00"/>
<path d="M36.0004 18.6703L23.3337 32.337H48.6671L36.0004 18.6703Z" fill="#FEEEB7"/>
</g>
<defs>
<clipPath id="clip0_8679_13549">
<rect width="42.6667" height="38.6667" fill="white" transform="translate(14.6666 18.6672)"/>
</clipPath>
</defs>
</svg>
